<svg width="24" height="24" viewBox="0 0 24 24" fill="none" xmlns="http://www.w3.org/2000/svg">
<g clip-path="url(#clip0_457_73)">
<path d="M6.9375 4.50391C7.641 4.50391 8.277 4.56241 8.85975 4.69141C9.43425 4.82041 9.93 5.01991 10.344 5.30116C10.7542 5.58241 11.0745 5.94991 11.3047 6.42241C11.5275 6.89116 11.6445 7.47316 11.6445 8.15266C11.6445 8.89066 11.4727 9.51241 11.1367 10.0119C10.797 10.5122 10.3005 10.9104 9.633 11.2307C10.539 11.4924 11.211 11.9492 11.6565 12.6017C12.1057 13.2617 12.3202 14.0507 12.3202 14.9612C12.3202 15.7112 12.1912 16.3517 11.91 16.8909C11.64 17.4298 11.2415 17.8939 10.7497 18.2424C10.269 18.5904 9.699 18.8402 9.08175 19.0082C8.4589 19.1763 7.81664 19.2618 7.1715 19.2624H-0.000751495V4.51216H6.93675L6.9375 4.50391ZM16.9417 16.6644C17.379 17.0942 18.012 17.3087 18.8362 17.3087C19.4257 17.3087 19.9342 17.1602 20.3632 16.8594C20.7892 16.5707 21.0427 16.2497 21.1447 15.9219H23.7307C23.3287 17.1992 22.6837 18.1209 21.8325 18.6722C20.9812 19.2309 19.95 19.5002 18.7545 19.5002C17.9145 19.5002 17.1682 19.3712 16.4812 19.1019C15.8344 18.8469 15.2486 18.4581 14.7622 17.9612C14.2972 17.4729 13.938 16.8827 13.6837 16.1919C13.4295 15.5012 13.3087 14.7429 13.3087 13.9224C13.3087 13.1177 13.4452 12.3834 13.7152 11.6919C13.9664 11.0279 14.3462 10.42 14.8327 9.90316C15.3285 9.39166 15.8955 9.00841 16.5712 8.70766C17.2432 8.40691 17.97 8.27416 18.7897 8.27416C19.7002 8.27416 20.481 8.43841 21.1687 8.79766C21.8222 9.13031 22.3904 9.60892 22.8292 10.1964C23.271 10.7822 23.5792 11.4579 23.7705 12.2199C23.9617 12.9699 24.0202 13.7589 23.9812 14.5989H16.29C16.29 15.4389 16.5712 16.2317 17.001 16.6614L16.9192 16.6929L16.9417 16.6644ZM6.699 16.7147C7.0155 16.7147 7.32 16.6832 7.605 16.6209C7.87518 16.5679 8.13341 16.4659 8.367 16.3202C8.57775 16.1874 8.75775 15.9917 8.8905 15.7382C9.0195 15.4997 9.078 15.1682 9.078 14.7774C9.078 14.0274 8.859 13.4882 8.4375 13.1604C8.00775 12.8402 7.449 12.6797 6.75 12.6797H3.2385V16.7304H6.69975V16.6989L6.699 16.7147ZM20.3085 11.0664C19.953 10.6794 19.3672 10.4724 18.648 10.4724C18.183 10.4724 17.7967 10.5467 17.484 10.7109C17.1967 10.8512 16.9433 11.0524 16.7415 11.3004C16.5617 11.5213 16.4288 11.7765 16.3507 12.0504C16.281 12.2819 16.2365 12.5203 16.218 12.7614H20.9797C20.9092 12.0114 20.6475 11.4609 20.3002 11.0702V11.0822L20.3085 11.0664ZM6.51975 10.4492C7.09425 10.4492 7.5705 10.3164 7.9455 10.0389C8.3205 9.76966 8.5005 9.31591 8.5005 8.69941C8.5005 8.35591 8.43 8.07466 8.3205 7.85566C8.19892 7.64618 8.02697 7.47036 7.82025 7.34416C7.59696 7.21487 7.35194 7.12743 7.09725 7.08616C6.82038 7.03378 6.53901 7.00891 6.25725 7.01191H3.23025V10.4492H6.51975ZM15.6172 5.49241H21.5857V6.94516H15.6172V5.48041V5.49241Z" fill="#B3E9C7"/>
</g>
<defs>
<clipPath id="clip0_457_73">
<rect width="24" height="24" fill="white"/>
</clipPath>
</defs>
</svg>
