<svg width="950" height="950" viewBox="0 0 950 950" fill="none" xmlns="http://www.w3.org/2000/svg">
<path d="M698.104 4.92204L947.487 690.076C946.888 688.798 945.889 687.719 944.531 687.08L477.522 469.334C477.522 469.334 477.203 469.135 477.003 469.055L471.57 466.538L687.039 4.44269C688.078 2.24566 690.314 0.887493 692.751 1.00733C695.188 1.08722 697.305 2.64512 698.104 4.92204V4.92204Z" stroke="#B99CFF" stroke-width="2"/>
<path d="M947.926 691.674C948.046 692.313 948.046 692.912 947.926 693.551C947.527 695.708 946.049 697.426 944.052 698.145C943.812 698.225 943.532 698.305 943.293 698.345C943.093 698.385 942.853 698.425 942.653 698.465H941.974L350.654 754.069L261.934 944.532C260.895 946.729 258.658 948.127 256.261 948.007C253.825 947.887 251.707 946.33 250.869 944.053L1.36576 258.539C0.526892 256.262 1.16603 253.706 2.92365 252.068C4.72122 250.43 7.31771 250.031 9.51474 251.069L471.57 466.538L477.003 469.055C477.003 469.055 477.362 469.214 477.522 469.334L944.531 687.08C945.889 687.719 946.888 688.798 947.487 690.076C947.607 690.395 947.727 690.675 947.807 690.995C947.846 691.234 947.926 691.434 947.926 691.674V691.674Z" stroke="#B99CFF" stroke-width="2"/>
</svg>
